<svg xmlns="http://www.w3.org/2000/svg" viewBox="0 0 276 226"><defs><style>.cls-1{fill:#a66d1e;stroke:#000;stroke-miterlimit:10;}</style></defs><title>folder_up</title><g id="Layer_2" data-name="Layer 2"><g id="folder_navigation"><path id="folder_up" class="cls-1" d="M274.34,13.37h-2.4A2.36,2.36,0,0,1,269.56,11V9.86A9.43,9.43,0,0,0,260.07.5h-63.7a9.43,9.43,0,0,0-9.5,9.36V11a2.36,2.36,0,0,1-2.38,2.34H2.87A2.36,2.36,0,0,0,.5,15.71V223.16a2.36,2.36,0,0,0,2.37,2.34H271.94c1.31,0,2.37-1.05,3.56-2.34V14.51A1.15,1.15,0,0,0,274.34,13.37Zm-108.08,129V210H110.39V142.32H74.53L138,34l63.47,108.34Z"/></g></g></svg>