<svg xmlns="http://www.w3.org/2000/svg" viewBox="0 0 276 226"><defs><style>.cls-1{fill:#a66d1e;stroke:#000;stroke-miterlimit:10;}</style></defs><title>folder_maximize</title><g id="Layer_2" data-name="Layer 2"><g id="folder_navigation"><path id="folder_maximize" class="cls-1" d="M274.34,13.37h-2.4A2.36,2.36,0,0,1,269.56,11V9.86A9.43,9.43,0,0,0,260.07.5h-63.7a9.43,9.43,0,0,0-9.5,9.36V11a2.36,2.36,0,0,1-2.38,2.34H2.87A2.36,2.36,0,0,0,.5,15.71V223.16a2.36,2.36,0,0,0,2.37,2.34H271.94c1.31,0,2.37-1.05,3.56-2.34V14.51A1.15,1.15,0,0,0,274.34,13.37ZM217.53,136.59H156v60.64H120V136.59H58.47V101.11H120V40.47h36v60.64h61.53Z"/></g></g></svg>