<svg xmlns="http://www.w3.org/2000/svg" xmlns:xlink="http://www.w3.org/1999/xlink" viewBox="0 0 400 400"><defs><style>.cls-1{isolation:isolate;}.cls-2{fill:#9e9e9e;}.cls-3{opacity:0.15;mix-blend-mode:hard-light;}.cls-4{fill:url(#radial-gradient);}.cls-5{fill:#45c236;}.cls-6{mix-blend-mode:screen;}.cls-7{fill:url(#radial-gradient-2);}.cls-8{opacity:0.4;fill:url(#radial-gradient-3);}.cls-9{fill:url(#radial-gradient-4);}</style><radialGradient id="radial-gradient" cx="200" cy="200" r="200" gradientUnits="userSpaceOnUse"><stop offset="0.54" stop-color="#006a15"/><stop offset="0.64" stop-color="#fff"/><stop offset="0.66" stop-color="#fafff9"/><stop offset="0.69" stop-color="#ecffe8"/><stop offset="0.72" stop-color="#d5ffcc"/><stop offset="0.75" stop-color="#b5ffa4"/><stop offset="0.79" stop-color="#8cff72"/><stop offset="0.83" stop-color="#5bff36"/><stop offset="0.85" stop-color="#40ff15"/><stop offset="0.87" stop-color="#3df815"/><stop offset="0.9" stop-color="#35e515"/><stop offset="0.93" stop-color="#28c715"/><stop offset="0.96" stop-color="#159c15"/><stop offset="1" stop-color="#006a15"/></radialGradient><radialGradient id="radial-gradient-2" cx="202.67" cy="202.67" fx="333.32575927141414" fy="202.66666666666788" r="131.98" gradientTransform="translate(321.42 461.55) rotate(-159.28) scale(1 0.99)" gradientUnits="userSpaceOnUse"><stop offset="0.06" stop-color="#b7ecb0"/><stop offset="0.3" stop-color="#b5ebae"/><stop offset="0.88" stop-color="#28c615"/></radialGradient><radialGradient id="radial-gradient-3" cx="261.26" cy="-30.73" r="128.76" gradientTransform="translate(-18.66 207.7) scale(0.7 2.4)" gradientUnits="userSpaceOnUse"><stop offset="0" stop-color="#fff" stop-opacity="0.3"/><stop offset="0.14" stop-color="#fff" stop-opacity="0.32"/><stop offset="0.29" stop-color="#fff" stop-opacity="0.37"/><stop offset="0.44" stop-color="#fff" stop-opacity="0.46"/><stop offset="0.61" stop-color="#fff" stop-opacity="0.58"/><stop offset="0.77" stop-color="#fff" stop-opacity="0.73"/><stop offset="0.94" stop-color="#fff" stop-opacity="0.92"/><stop offset="1" stop-color="#fff"/></radialGradient><radialGradient id="radial-gradient-4" cx="154.69" cy="104.07" r="34.91" gradientUnits="userSpaceOnUse"><stop offset="0" stop-color="#fff"/><stop offset="0.06" stop-color="#fff" stop-opacity="0.92"/><stop offset="0.23" stop-color="#fff" stop-opacity="0.73"/><stop offset="0.39" stop-color="#fff" stop-opacity="0.58"/><stop offset="0.56" stop-color="#fff" stop-opacity="0.46"/><stop offset="0.71" stop-color="#fff" stop-opacity="0.37"/><stop offset="0.86" stop-color="#fff" stop-opacity="0.32"/><stop offset="1" stop-color="#fff" stop-opacity="0.3"/></radialGradient></defs><title>player_record</title><g class="cls-1"><g id="Layer_2" data-name="Layer 2"><g id="media_player"><g id="player_record"><g id="record_badge"><circle cx="200" cy="200" r="198.5"/><path class="cls-2" d="M200,3a197.05,197.05,0,0,1,76.68,378.52,197.05,197.05,0,0,1-153.36-363A195.76,195.76,0,0,1,200,3m0-3C89.54,0,0,89.54,0,200S89.54,400,200,400s200-89.54,200-200S310.46,0,200,0Z"/></g><g id="record_badge_glow" class="cls-3"><path class="cls-4" d="M200,0C89.54,0,0,89.54,0,200S89.54,400,200,400s200-89.54,200-200S310.46,0,200,0Zm0,320A120,120,0,1,1,320,200,120,120,0,0,1,200,320Z"/></g><g id="record_symbol"><circle class="cls-5" cx="200" cy="200" r="120"/></g><g id="record_symbol_glow" class="cls-6"><circle class="cls-7" cx="200" cy="200" r="120"/></g><path id="record_symbol_glow_reflection" class="cls-8" d="M177.56,177.56c-22,93,22,126,4,127-66,3.66-85-58.09-93-99-10-51,72-118.79,108-115C310.56,102.56,190.27,123.81,177.56,177.56Z"/><ellipse id="record_symbol_glow_glare" class="cls-9" cx="155.06" cy="113.56" rx="25.5" ry="16"/></g></g></g></g></svg>