<svg xmlns="http://www.w3.org/2000/svg" xmlns:xlink="http://www.w3.org/1999/xlink" viewBox="0 0 550 550"><defs><style>.cls-1{fill:url(#radial-gradient);}.cls-2{fill:#a66d1e;}.cls-2,.cls-3,.cls-4,.cls-5,.cls-6{stroke:#000;stroke-miterlimit:10;}.cls-3{fill:#0000e7;}.cls-4{fill:#b9003e;}.cls-5{fill:#009102;}.cls-6{fill:#634112;}</style><radialGradient id="radial-gradient" cx="272.03" cy="341.74" r="250.3" gradientTransform="translate(10.12 -152.78) scale(0.97 1.25)" gradientUnits="userSpaceOnUse"><stop offset="0.52" stop-color="#fff"/><stop offset="0.54" stop-color="#fbf8d6"/><stop offset="0.57" stop-color="#f7f0aa"/><stop offset="0.6" stop-color="#f4e881"/><stop offset="0.63" stop-color="#f0e25e"/><stop offset="0.66" stop-color="#eedd41"/><stop offset="0.7" stop-color="#ecd829"/><stop offset="0.74" stop-color="#ead517"/><stop offset="0.79" stop-color="#e9d30a"/><stop offset="0.86" stop-color="#e8d102"/><stop offset="1" stop-color="#e8d100"/></radialGradient></defs><title>player_now_playing</title><g id="Layer_2" data-name="Layer 2"><g id="media_player"><g id="player_now_playing"><g id="star_badge"><polygon class="cls-1" points="275 413.12 227.76 547.04 228.48 404.79 138.98 514.23 187.56 380.81 66.59 452.58 157.19 344.07 19.34 369.49 141.03 298.99 2.92 275 141.03 251.01 19.34 180.51 157.19 205.93 66.59 97.42 187.56 169.19 138.98 35.77 228.48 145.21 227.76 2.96 275 136.88 322.24 2.96 321.52 145.21 411.02 35.77 362.43 169.19 483.41 97.42 392.81 205.93 530.66 180.51 408.97 251.01 547.08 275 408.97 298.99 530.66 369.49 392.81 344.07 483.41 452.58 362.43 380.81 411.02 514.23 321.52 404.79 322.24 547.04 275 413.12"/><path d="M321.72,5.93,321,143.79l0,2.83,1.79-2.19L409.54,38.36,362.44,167.7l-.95,2.63,2.4-1.43L481.16,99.34,393.31,204.55l-1.77,2.13,2.72-.51,133.65-24.65-118,68.37-2.38,1.38,2.71.47L544.16,275,410.24,298.26l-2.71.47,2.38,1.38,118,68.37L394.26,343.83l-2.72-.51,1.77,2.13,87.85,105.21L363.89,381.1l-2.4-1.43.95,2.63,47.1,129.34L322.8,405.57,321,403.38l0,2.83.69,137.86L275.94,414.29l-.94-2.68-.94,2.68L228.28,544.07,229,406.21l0-2.83-1.79,2.19L140.46,511.64l47.1-129.34.95-2.63-2.4,1.43L68.84,450.66l87.85-105.21,1.77-2.13-2.72.51L22.09,368.48l118-68.37,2.38-1.38-2.71-.47L5.84,275l133.92-23.26,2.71-.47-2.38-1.38-118-68.37,133.65,24.65,2.72.51-1.77-2.13L68.84,99.34,186.11,168.9l2.4,1.43-.95-2.63L140.46,38.36,227.2,144.43l1.79,2.19,0-2.83L228.28,5.93l45.78,129.78.94,2.67.94-2.67L321.72,5.93m1-5.93L275,135.38,227.25,0,228,143.8,137.5,33.17,186.62,168,64.34,95.51l91.58,109.68L16.58,179.49l123,71.27L0,275l139.59,24.24-123,71.27,139.34-25.7L64.34,454.49,186.62,382,137.5,516.83,228,406.2,227.25,550,275,414.62,322.75,550,322,406.2,412.5,516.83,363.38,382l122.28,72.53L394.08,344.81l139.34,25.7-123-71.27L550,275,410.41,250.76l123-71.27-139.34,25.7L485.66,95.51,363.38,168,412.5,33.17,322,143.8,322.75,0Z"/></g><path id="folder_front" class="cls-2" d="M416.69,148.54h-2.55a2.68,2.68,0,0,1-2.51-2.83v-1.42c0-6.27-4.5-11.35-10.05-11.35H334.2c-5.55,0-10.05,5.08-10.05,11.35v1.42a2.68,2.68,0,0,1-2.51,2.83H129.53a2.69,2.69,0,0,0-2.51,2.84V402.92a2.69,2.69,0,0,0,2.51,2.84H414.14c1.39,0,2.51-1.27,3.77-2.84v-253A1.31,1.31,0,0,0,416.69,148.54Z"/><polygon id="pic_3" class="cls-3" points="390.03 324.34 153.23 405.98 108.11 239 344.91 157.35 390.03 324.34"/><polygon id="pic_2" class="cls-4" points="382.55 402.86 138.24 357.47 167.63 155.6 411.93 200.99 382.55 402.86"/><polygon id="pic_1" class="cls-5" points="426.66 324.79 179.12 330.54 176.62 192.78 424.15 187.03 426.66 324.79"/><path id="folder_front-2" data-name="folder_front" class="cls-6" d="M485.29,214H202.91a7.26,7.26,0,0,0-6.45,4.14L127.56,402c-.85,2.29.65,4.14,3.35,4.14H413.14a7.18,7.18,0,0,0,3.67-1.52,3,3,0,0,0,1.18-1.39l69.77-186.13C488.39,215.37,487.29,214,485.29,214Z"/></g></g></g></svg>